<svg width="24" height="25" viewBox="0 0 24 25" fill="none" xmlns="http://www.w3.org/2000/svg">
<path d="M17.1068 11.5653C17.0927 11.7125 17.003 11.8736 16.7963 12.0372C14.7689 13.6419 12.7415 15.2466 10.7142 16.8512C10.2813 17.1938 9.25425 17.2735 9.25425 16.4675C9.25425 13.4983 9.25425 10.529 9.25425 7.55977C9.25425 6.83037 10.3567 6.65063 10.7979 6.9476C12.8252 8.31218 14.8526 9.67675 16.8799 11.0413C17.1121 11.1976 17.163 11.3849 17.1068 11.5653ZM24 14.0962C23.3575 29.4643 -2.6034 26.2806 0.213644 10.103C1.39564 3.31493 7.04615 -0.254973 13.2546 0.175199C20.2429 0.659442 23.8728 7.00069 23.9994 13.9945C23.9997 14.0121 23.9882 14.0268 23.9859 14.0438C23.9884 14.0628 24.0008 14.0749 24 14.0962ZM22.6972 14.2951C22.5918 9.34457 20.8319 3.99799 16.2911 1.87012C10.2727 -0.950066 3.18202 2.37611 1.6526 9.23038C0.284654 15.3609 3.32674 20.7964 8.89292 22.7624C14.8265 24.8582 22.373 21.5603 22.6972 14.2951Z" fill="white"/>
</svg>
